# xmcd
#
# Track frame offsets:
#  150
#  20126
#  48787
#  69496
#  87593
#  120096
#  137913
#  164145
#  200245
#  218797
#  231018
#
# Disc length: 3448 seconds
#
# Revision: 0
# Processed by: cddbd v1.5.2PL0 Copyright (c) Steve Scherf et al.
# Submitted via: Collectorz.com_Music_Collector 6.11
#
DISCID=a10d760b
DTITLE=Faithless - Sunday 8PM
DYEAR=1998
DGENRE=Pop
TTITLE0=The Garden
TTITLE1=Bring My Family Back
TTITLE2=Hour Of Need
TTITLE3=Postcards
TTITLE4=Take The Long Way Home
TTITLE5=Why Go?
TTITLE6=She's My Baby
TTITLE7=God Is A DJ
TTITLE8=Hem Of His Garment
TTITLE9=Sunday 8PM
TTITLE10=Killer's Lullaby
EXTD=
EXTT0=
EXTT1=
EXTT2=
EXTT3=
EXTT4=
EXTT5=
EXTT6=
EXTT7=
EXTT8=
EXTT9=
EXTT10=
PLAYORDER=
